PathFileType	4	(X/Y/Z)	C:\Users\86182\Documents\cortex\Trimmed_M3_H1.trc
DataRate	CameraRate	NumFrames	NumMarkers	Units	OrigDataRate	OrigDataStartFrame	OrigNumFrames
100.00	100.00	       70	2	mm	100.00	541	       901
Frame#	Time	gripper			box			
		X1	Y1	Z1	X2	Y2	Z2	

541	5.400	267.65045	173.21271	292.22195	267.95053	170.04485	155.78636	
542	5.410	267.65186	173.21310	292.22223	267.95627	170.03880	155.78110	
543	5.420	267.65604	173.21396	292.22205	267.95972	170.03546	155.77878	
544	5.430	267.66193	173.21497	292.22119	267.96185	170.03352	155.77840	
545	5.440	267.66818	173.21584	292.21979	267.96390	170.03194	155.77855	
546	5.450	267.67377	173.21646	292.21796	267.96652	170.03070	155.77776	
547	5.460	267.67816	173.21684	292.21597	267.96951	170.03041	155.77505	
548	5.470	267.68118	173.21700	292.21405	267.97214	170.03137	155.77014	
549	5.480	267.68253	173.21692	292.21243	267.97369	170.03348	155.76357	
550	5.490	267.68179	173.21658	292.21133	267.97339	170.03650	155.75652	
551	5.500	267.67908	173.21600	292.21075	267.97055	170.04037	155.75046	
552	5.510	267.67508	173.21530	292.21060	267.96469	170.04526	155.74654	
553	5.520	267.67093	173.21463	292.21085	267.95621	170.05128	155.74539	
554	5.530	267.66754	173.21413	292.21152	267.94617	170.05800	155.74734	
555	5.540	267.66547	173.21393	292.21265	267.93604	170.06459	155.75211	
556	5.550	267.66483	173.21407	292.21423	267.92719	170.07043	155.75862	
557	5.560	267.66507	173.21446	292.21606	267.92075	170.07509	155.76505	
558	5.570	267.66550	173.21495	292.21786	267.91769	170.07814	155.76907	
559	5.580	267.66592	173.21536	292.21924	267.91849	170.07921	155.76892	
560	5.590	267.66678	173.21564	292.21973	267.92310	170.07811	155.76381	
561	5.600	267.66882	173.21587	292.21912	267.93094	170.07498	155.75412	
562	5.610	267.67252	173.21617	292.21747	267.94080	170.07022	155.74118	
563	5.620	267.67725	173.21663	292.21515	267.95102	170.06422	155.72711	
564	5.630	267.68140	173.21704	292.21280	267.95978	170.05762	155.71452	
565	5.640	267.68307	173.21718	292.21106	267.96558	170.05122	155.70586	
566	5.650	267.68127	173.21693	292.21051	267.96753	170.04591	155.70262	
567	5.660	267.67645	173.21643	292.21158	267.96561	170.04256	155.70494	
568	5.670	267.67004	173.21588	292.21399	267.96030	170.04175	155.71170	
569	5.680	267.66382	173.21544	292.21698	267.95276	170.04332	155.72093	
570	5.690	267.65912	173.21512	292.21960	267.94409	170.04649	155.73041	
571	5.700	267.65610	173.21484	292.22119	267.93533	170.05029	155.73813	
572	5.710	267.65430	173.21454	292.22165	267.92758	170.05406	155.74266	
573	5.720	267.65326	173.21414	292.22101	267.92169	170.05771	155.74323	
574	5.730	267.65302	173.21375	292.21960	267.91791	170.06157	155.73987	
575	5.740	267.65387	173.21350	292.21783	267.91620	170.06587	155.73355	
576	5.750	267.65622	173.21355	292.21600	267.91675	170.07027	155.72574	
577	5.760	267.66010	173.21394	292.21445	267.91980	170.07413	155.71793	
578	5.770	267.66492	173.21461	292.21344	267.92490	170.07692	155.71123	
579	5.780	267.66965	173.21530	292.21307	267.93112	170.07826	155.70653	
580	5.790	267.67313	173.21568	292.21310	267.93759	170.07774	155.70444	
581	5.800	267.67462	173.21545	292.21326	267.94397	170.07484	155.70500	
582	5.810	267.67395	173.21449	292.21323	267.95035	170.06934	155.70761	
583	5.820	267.67160	173.21289	292.21301	267.95624	170.06197	155.71149	
584	5.830	267.66830	173.21085	292.21259	267.96057	170.05438	155.71622	
585	5.840	267.66452	173.20869	292.21219	267.96249	170.04813	155.72154	
586	5.850	267.66040	173.20683	292.21194	267.96201	170.04388	155.72702	
587	5.860	267.65616	173.20573	292.21204	267.95993	170.04140	155.73180	
588	5.870	267.65237	173.20570	292.21252	267.95734	170.04015	155.73473	
589	5.880	267.64969	173.20653	292.21332	267.95444	170.04019	155.73532	
590	5.890	267.64859	173.20789	292.21411	267.95096	170.04193	155.73399	
591	5.900	267.64926	173.20940	292.21469	267.94705	170.04524	155.73154	
592	5.910	267.65152	173.21086	292.21484	267.94357	170.04935	155.72852	
593	5.920	267.65491	173.21217	292.21460	267.94128	170.05328	155.72508	
594	5.930	267.65872	173.21323	292.21417	267.94019	170.05641	155.72127	
595	5.940	267.66199	173.21400	292.21387	267.93951	170.05858	155.71729	
596	5.950	267.66400	173.21446	292.21378	267.93848	170.06000	155.71367	
597	5.960	267.66476	173.21468	292.21390	267.93704	170.06087	155.71121	
598	5.970	267.66479	173.21471	292.21411	267.93576	170.06108	155.71043	
599	5.980	267.66452	173.21461	292.21439	267.93533	170.06032	155.71127	
600	5.990	267.66394	173.21443	292.21472	267.93634	170.05812	155.71321	
601	6.000	267.66287	173.21419	292.21521	267.93927	170.05402	155.71556	
602	6.010	267.66156	173.21397	292.21582	267.94421	170.04799	155.71794	
603	6.020	267.66055	173.21387	292.21643	267.95035	170.04092	155.72020	
604	6.030	267.66028	173.21384	292.21671	267.95615	170.03450	155.72198	
605	6.040	267.66083	173.21382	292.21655	267.96008	170.03030	155.72282	
606	6.050	267.66211	173.21373	292.21594	267.96133	170.02907	155.72250	
607	6.060	267.66391	173.21349	292.21484	267.96008	170.03058	155.72096	
608	6.070	267.66608	173.21303	292.21335	267.95728	170.03410	155.71820	
609	6.080	267.66821	173.21237	292.21161	267.95413	170.03871	155.71463	
610	6.090	267.67001	173.21155	292.20984	267.95163	170.04344	155.71088	
